<svg width="21" height="21" xmlns="http://www.w3.org/2000/svg"><path d="M20.286 5.58L15.421.714a2.438 2.438 0 00-3.447 0L8.227 4.46l-.174-.173-7.898 7.898.217.218a2.438 2.438 0 00.342 3.018l4.865 4.866c.82.82 2.077.932 3.019.34l.217.218 7.898-7.898-.173-.174 3.746-3.746a2.438 2.438 0 000-3.447zM6.501 19.365l-4.866-4.866a1.133 1.133 0 01-.286-1.12l6.271 6.272a1.134 1.134 0 01-1.119-.286zm12.863-11.26l-3.747 3.746L9.15 5.383l3.746-3.747a1.135 1.135 0 011.603 0l4.866 4.866c.442.442.442 1.16 0 1.603z" fill="#474747" fill-rule="nonzero"/></svg>